<svg width="100" height="85" viewBox="0 0 100 85" fill="none" xmlns="http://www.w3.org/2000/svg">
<path d="M23.2144 29.3413H23.8999M50 29.3413H50.6855M76.0923 29.3413H76.7778M47.0625 55.6827H13.4444C7.67614 55.6827 3 51.0236 3 45.2762V13.4065C3 7.65913 7.67614 3 13.4444 3H86.5556C92.3239 3 97 7.65913 97 13.4065V29.3413M66.7006 50.2928L73.506 46.9025C78.4679 44.4306 84.3084 44.4306 89.2703 46.9025L96.0756 50.2928C96.0756 50.2928 96.0756 60.9757 96.0756 66.6098C96.0756 72.2439 90.8485 76.0472 81.3881 82C71.9277 76.0472 66.7006 71.0244 66.7006 66.6098V50.2928Z" stroke="#F97316" stroke-width="6" stroke-linecap="round" stroke-linejoin="round"/>
</svg>
